<svg width="18" height="18" viewBox="0 0 18 18" fill="none" xmlns="http://www.w3.org/2000/svg">
<path fill-rule="evenodd" clip-rule="evenodd" d="M7.57895 15.1579C9.32779 15.1579 10.9355 14.5563 12.2182 13.5587L16.3828 17.7234L17.7224 16.3838L13.5578 12.2192C14.5563 10.9355 15.1579 9.32779 15.1579 7.57895C15.1579 3.40011 11.7578 0 7.57895 0C3.40011 0 0 3.40011 0 7.57895C0 11.7578 3.40011 15.1579 7.57895 15.1579ZM7.57895 1.89474C10.7138 1.89474 13.2632 4.44411 13.2632 7.57895C13.2632 10.7138 10.7138 13.2632 7.57895 13.2632C4.44411 13.2632 1.89474 10.7138 1.89474 7.57895C1.89474 4.44411 4.44411 1.89474 7.57895 1.89474ZM9.47368 7.57895C9.47368 7.07495 9.27568 6.59937 8.91663 6.23937C8.20042 5.52505 6.95937 5.52316 6.23937 6.24126L4.90168 4.89979C6.33505 3.46737 8.82189 3.46737 10.2562 4.89979C10.9743 5.61884 11.3684 6.57 11.3684 7.57895H9.47368Z" fill="#8592A3"/>
<path fill-rule="evenodd" clip-rule="evenodd" d="M7.57895 15.1579C9.32779 15.1579 10.9355 14.5563 12.2182 13.5587L16.3828 17.7234L17.7224 16.3838L13.5578 12.2192C14.5563 10.9355 15.1579 9.32779 15.1579 7.57895C15.1579 3.40011 11.7578 0 7.57895 0C3.40011 0 0 3.40011 0 7.57895C0 11.7578 3.40011 15.1579 7.57895 15.1579ZM7.57895 1.89474C10.7138 1.89474 13.2632 4.44411 13.2632 7.57895C13.2632 10.7138 10.7138 13.2632 7.57895 13.2632C4.44411 13.2632 1.89474 10.7138 1.89474 7.57895C1.89474 4.44411 4.44411 1.89474 7.57895 1.89474ZM9.47368 7.57895C9.47368 7.07495 9.27568 6.59937 8.91663 6.23937C8.20042 5.52505 6.95937 5.52316 6.23937 6.24126L4.90168 4.89979C6.33505 3.46737 8.82189 3.46737 10.2562 4.89979C10.9743 5.61884 11.3684 6.57 11.3684 7.57895H9.47368Z" fill="black" fill-opacity="0.2"/>
</svg>
